<svg width="1440" height="81" viewBox="0 0 1440 81" fill="none" xmlns="http://www.w3.org/2000/svg">
<rect width="1440" height="80" transform="translate(0 0.5)" fill="black"/>
<g clip-path="url(#clip0_0_525)">
<path fill-rule="evenodd" clip-rule="evenodd" d="M279.552 40.4034C279.271 40.4042 278.991 40.3493 278.731 40.2418C278.47 40.1344 278.234 39.9764 278.035 39.7771C277.835 39.5779 277.678 39.3412 277.57 39.0807C277.463 38.8202 277.409 38.5411 277.41 38.2594C277.41 37.0827 278.358 36.1028 279.565 36.1028C279.847 36.102 280.126 36.1569 280.386 36.2644C280.647 36.3719 280.883 36.5298 281.083 36.7291C281.282 36.9283 281.44 37.165 281.547 37.4255C281.654 37.686 281.709 37.9651 281.708 38.2468C281.708 38.8184 281.481 39.3666 281.076 39.771C280.672 40.1754 280.124 40.4028 279.552 40.4034ZM279.565 36.3164C279.31 36.3144 279.057 36.3634 278.821 36.4605C278.585 36.5576 278.37 36.7009 278.191 36.8819C278.011 37.0628 277.869 37.2779 277.773 37.5145C277.678 37.751 277.63 38.0043 277.634 38.2594C277.634 39.3272 278.459 40.1877 279.552 40.1877C279.807 40.1894 280.06 40.1403 280.296 40.0432C280.532 39.9461 280.746 39.8031 280.925 39.6224C281.105 39.4417 281.247 39.2269 281.343 38.9908C281.439 38.7546 281.487 38.5017 281.484 38.2468C281.487 37.9933 281.441 37.7415 281.346 37.5064C281.251 37.2712 281.11 37.0574 280.931 36.8775C280.752 36.6977 280.539 36.5553 280.305 36.459C280.07 36.3626 279.819 36.3141 279.565 36.3164ZM280.038 38.4667L280.646 39.3167H280.135L279.59 38.5379H279.119V39.3167H278.691V37.066H279.697C280.218 37.066 280.562 37.334 280.562 37.7841C280.562 38.1526 280.348 38.3787 280.038 38.4667ZM279.678 37.4512H279.119V38.1631H279.678C279.957 38.1631 280.122 38.027 280.122 37.8071C280.122 37.5768 279.954 37.4512 279.678 37.4512ZM252.86 30.0812C252.28 30.0809 251.724 30.3107 251.315 30.7201C250.905 31.1294 250.674 31.6848 250.674 32.2639C250.674 32.8431 250.904 33.3987 251.313 33.8084C251.723 34.2181 252.278 34.4485 252.858 34.4488C253.437 34.4488 253.993 34.2186 254.403 33.8088C254.813 33.3991 255.043 32.8434 255.043 32.2639C255.043 31.6845 254.813 31.1288 254.403 30.719C253.993 30.3093 253.437 30.0791 252.858 30.0791M254.366 36.13H251.32C251.261 36.1306 251.205 36.1544 251.163 36.1964C251.121 36.2384 251.098 36.295 251.098 36.3541V49.641C251.098 49.7666 251.197 49.865 251.32 49.865H254.368C254.427 49.865 254.484 49.8414 254.526 49.7994C254.568 49.7574 254.592 49.7004 254.592 49.641V36.3541C254.592 36.2947 254.568 36.2377 254.526 36.1957C254.484 36.1536 254.425 36.13 254.366 36.13ZM261.139 36.1426V35.7239C261.139 34.4844 261.615 33.9316 262.681 33.9316C263.316 33.9316 263.825 34.0572 264.398 34.2499C264.432 34.2613 264.468 34.2644 264.503 34.2591C264.538 34.2537 264.572 34.24 264.6 34.219C264.629 34.1981 264.652 34.1706 264.668 34.1388C264.684 34.107 264.692 34.0718 264.692 34.0363V31.4715C264.691 31.4235 264.676 31.3769 264.647 31.3385C264.619 31.3 264.578 31.2718 264.532 31.2579C263.711 31.0071 262.857 30.8843 261.998 30.8936C259.185 30.8936 257.698 32.4785 257.698 35.4747V36.1196H256.234C256.175 36.1196 256.118 36.1429 256.076 36.1845C256.034 36.226 256.01 36.2825 256.01 36.3415V38.9734C256.01 39.0969 256.11 39.1974 256.234 39.1974H257.698V49.6452C257.698 49.7666 257.796 49.8671 257.92 49.8671H260.968C261.027 49.8666 261.083 49.8427 261.125 49.8008C261.166 49.7588 261.19 49.7022 261.19 49.6431V39.1953H264.034L268.393 49.6431C267.898 50.7381 267.412 50.958 266.748 50.958C266.21 50.958 265.645 50.7968 265.067 50.4806C265.04 50.4663 265.011 50.4574 264.98 50.4545C264.95 50.4517 264.92 50.4548 264.891 50.4639C264.861 50.4738 264.835 50.4898 264.812 50.5107C264.789 50.5316 264.771 50.557 264.759 50.5853L263.726 52.8486C263.702 52.8997 263.698 52.9581 263.716 53.0118C263.733 53.0654 263.771 53.1104 263.82 53.1376C264.899 53.7217 265.873 53.9709 267.075 53.9709C269.325 53.9709 270.569 52.924 271.664 50.1037L276.951 36.4483C276.965 36.4145 276.97 36.3777 276.966 36.3414C276.962 36.3051 276.95 36.2702 276.929 36.24C276.909 36.2097 276.881 36.185 276.849 36.168C276.816 36.1511 276.78 36.1423 276.744 36.1426H273.572C273.526 36.1431 273.481 36.1578 273.444 36.1848C273.406 36.2118 273.378 36.2497 273.363 36.2934L270.112 45.5708L266.552 36.2871C266.536 36.2448 266.508 36.2083 266.47 36.1825C266.433 36.1567 266.389 36.1428 266.344 36.1426H261.139ZM249.458 36.13H246.107V32.7026C246.107 32.6733 246.101 32.6442 246.09 32.6172C246.078 32.5901 246.062 32.5655 246.041 32.5449C246.02 32.5243 245.996 32.508 245.968 32.4969C245.941 32.4859 245.912 32.4804 245.883 32.4806H242.835C242.777 32.4812 242.72 32.5047 242.679 32.5462C242.637 32.5878 242.614 32.6439 242.613 32.7026V36.13H241.147C241.118 36.13 241.089 36.1359 241.062 36.1471C241.035 36.1584 241.01 36.175 240.989 36.1958C240.969 36.2166 240.952 36.2413 240.941 36.2685C240.93 36.2957 240.925 36.3248 240.925 36.3541V38.9713C240.925 39.0948 241.026 39.1953 241.147 39.1953H242.613V45.9665C242.613 48.7051 243.975 50.0912 246.664 50.0912C247.757 50.0912 248.662 49.8671 249.517 49.3835C249.551 49.3641 249.58 49.3358 249.6 49.3015C249.62 49.2673 249.63 49.2284 249.63 49.1888V46.6972C249.63 46.659 249.621 46.6213 249.603 46.5877C249.584 46.5542 249.558 46.5259 249.525 46.5057C249.493 46.4855 249.456 46.474 249.418 46.4723C249.379 46.4707 249.341 46.4789 249.307 46.4962C248.721 46.7914 248.153 46.9275 247.519 46.9275C246.54 46.9275 246.105 46.4857 246.105 45.4912V39.1953H249.456C249.486 39.1956 249.515 39.19 249.542 39.1788C249.569 39.1677 249.594 39.1512 249.615 39.1303C249.636 39.1094 249.653 39.0846 249.664 39.0573C249.675 39.03 249.68 39.0008 249.68 38.9713V36.3541C249.68 36.3248 249.675 36.2957 249.664 36.2685C249.653 36.2413 249.637 36.2166 249.616 36.1958C249.595 36.175 249.571 36.1584 249.544 36.1471C249.517 36.1359 249.487 36.13 249.458 36.13ZM233.391 35.8516C229.286 35.8516 226.066 39.0131 226.066 43.0478C226.066 47.0406 229.263 50.1665 233.341 50.1665C237.461 50.1665 240.688 47.0175 240.688 42.9975C240.688 38.9901 237.484 35.8516 233.391 35.8516ZM233.391 47.0783C231.206 47.0783 229.558 45.3237 229.558 42.9955C229.558 40.6609 231.15 38.9671 233.341 38.9671C235.54 38.9671 237.195 40.7216 237.195 43.0499C237.195 45.3844 235.597 47.0783 233.391 47.0783ZM218.7 35.8516C216.982 35.8516 215.575 36.5279 214.415 37.9118V36.3541C214.415 36.295 214.391 36.2384 214.35 36.1964C214.308 36.1544 214.252 36.1306 214.193 36.13H211.145C211.086 36.1306 211.029 36.1544 210.988 36.1964C210.946 36.2384 210.923 36.295 210.923 36.3541V53.6694C210.923 53.7908 211.024 53.8913 211.145 53.8913H214.193C214.251 53.8908 214.307 53.8672 214.349 53.8257C214.39 53.7842 214.414 53.7281 214.415 53.6694V48.2047C215.577 49.5049 216.985 50.1414 218.7 50.1414C221.888 50.1414 225.116 47.6875 225.116 42.9975C225.116 38.3075 221.89 35.8516 218.7 35.8516ZM221.574 42.9975C221.574 45.3844 220.101 47.0531 217.994 47.0531C215.91 47.0531 214.339 45.309 214.339 42.9975C214.339 40.686 215.91 38.9419 217.994 38.9419C220.068 38.9419 221.574 40.6463 221.574 42.9975ZM203.904 39.2079C200.503 38.3955 199.897 37.826 199.897 36.6305C199.897 35.4998 200.961 34.7398 202.545 34.7398C204.078 34.7398 205.601 35.3156 207.195 36.5048C207.218 36.5224 207.245 36.535 207.274 36.5421C207.303 36.5492 207.333 36.5505 207.362 36.5461C207.391 36.5416 207.419 36.5314 207.444 36.516C207.47 36.5007 207.491 36.4805 207.509 36.4567L209.172 34.1138C209.204 34.0675 209.218 34.0107 209.21 33.9548C209.202 33.8989 209.174 33.848 209.13 33.8123C207.232 32.288 205.094 31.5489 202.595 31.5489C198.919 31.5489 196.353 33.7515 196.353 36.9068C196.353 40.2882 198.567 41.4859 202.394 42.4092C205.649 43.1588 206.2 43.7869 206.2 44.9112C206.2 46.1549 205.09 46.9275 203.299 46.9275C201.313 46.9275 199.694 46.2575 197.88 44.6914C197.835 44.6528 197.776 44.6333 197.717 44.637C197.687 44.6392 197.659 44.6475 197.632 44.6611C197.606 44.6748 197.583 44.6936 197.564 44.7165L195.7 46.9317C195.662 46.9759 195.643 47.0333 195.647 47.0914C195.652 47.1495 195.679 47.2035 195.723 47.2416C197.777 49.1017 200.452 50.127 203.223 50.1163C207.182 50.1163 209.742 47.9535 209.742 44.6076C209.742 41.779 208.051 40.215 203.904 39.2058M169.935 21.1388C164.708 21.1388 159.695 23.2146 155.998 26.9094C152.302 30.6043 150.226 35.6156 150.226 40.841C150.226 46.0663 152.302 51.0777 155.998 54.7725C159.695 58.4674 164.708 60.5432 169.935 60.5432C175.162 60.5432 180.176 58.4674 183.872 54.7725C187.568 51.0777 189.645 46.0663 189.645 40.841C189.645 35.6156 187.568 30.6043 183.872 26.9094C180.176 23.2146 175.162 21.1388 169.935 21.1388ZM178.975 49.5552C178.891 49.6931 178.781 49.8132 178.65 49.9084C178.52 50.0037 178.372 50.0722 178.215 50.1101C178.058 50.1481 177.895 50.1546 177.735 50.1295C177.576 50.1043 177.423 50.0479 177.285 49.9635C172.656 47.1369 166.833 46.4983 159.971 48.0644C159.814 48.1003 159.652 48.1049 159.493 48.0779C159.334 48.0509 159.181 47.9929 159.045 47.9072C158.908 47.8214 158.79 47.7096 158.697 47.5782C158.603 47.4467 158.537 47.2982 158.501 47.1411C158.465 46.9839 158.461 46.8213 158.488 46.6624C158.515 46.5035 158.573 46.3514 158.658 46.2149C158.744 46.0785 158.856 45.9602 158.987 45.8669C159.119 45.7736 159.268 45.7071 159.425 45.6713C166.932 43.9544 173.372 44.6935 178.567 47.8676C179.145 48.2215 179.327 48.9773 178.975 49.5552ZM181.384 44.191C181.171 44.5376 180.829 44.7856 180.433 44.8806C180.037 44.9756 179.62 44.9098 179.273 44.6977C173.975 41.4419 165.899 40.4997 159.632 42.4008C159.251 42.4912 158.849 42.4329 158.51 42.2377C158.17 42.0425 157.917 41.7251 157.804 41.3503C157.69 40.9754 157.723 40.5713 157.897 40.2203C158.071 39.8693 158.373 39.5978 158.74 39.4612C165.899 37.29 174.797 38.3431 180.879 42.0784C181.051 42.1839 181.201 42.3223 181.32 42.4857C181.439 42.6491 181.524 42.8343 181.571 43.0307C181.618 43.2271 181.626 43.4309 181.594 43.6303C181.562 43.8298 181.492 44.021 181.386 44.1931M181.595 38.6049C175.241 34.834 164.76 34.4865 158.696 36.329C158.463 36.4032 158.218 36.4304 157.975 36.4091C157.731 36.3877 157.495 36.3183 157.279 36.2047C157.062 36.0912 156.871 35.9358 156.715 35.7476C156.56 35.5595 156.443 35.3422 156.372 35.1086C156.301 34.875 156.277 34.6296 156.302 34.3867C156.327 34.1438 156.4 33.9082 156.516 33.6937C156.633 33.4792 156.791 33.29 156.981 33.1371C157.172 32.9842 157.391 32.8707 157.626 32.8031C164.586 30.6884 176.16 31.0988 183.472 35.437C183.893 35.6863 184.197 36.0924 184.318 36.566C184.439 37.0395 184.367 37.5417 184.117 37.9621C183.868 38.3824 183.461 38.6865 182.988 38.8075C182.514 38.9284 182.012 38.8563 181.591 38.607" fill="white"/>
</g>
<path d="M820.649 41.6182H818.357V45.5H816.116V34.7041H820.818C821.902 34.7041 822.766 34.9824 823.411 35.5391C824.055 36.0957 824.377 36.9575 824.377 38.1245C824.377 39.3989 824.055 40.2998 823.411 40.8271C822.766 41.3545 821.846 41.6182 820.649 41.6182ZM821.704 39.3696C821.997 39.1108 822.144 38.7007 822.144 38.1392C822.144 37.5776 821.995 37.1772 821.697 36.938C821.404 36.6987 820.991 36.5791 820.459 36.5791H818.357V39.7578H820.459C820.991 39.7578 821.406 39.6284 821.704 39.3696ZM829.915 39.4429C829.075 39.4429 828.511 39.7163 828.223 40.2632C828.062 40.5708 827.981 41.0444 827.981 41.6841V45.5H825.879V37.5166H827.871V38.9082C828.193 38.376 828.474 38.0122 828.713 37.8169C829.104 37.4897 829.612 37.3262 830.237 37.3262C830.276 37.3262 830.308 37.3286 830.332 37.3335C830.361 37.3335 830.422 37.3359 830.515 37.3408V39.4795C830.383 39.4648 830.266 39.4551 830.164 39.4502C830.061 39.4453 829.978 39.4429 829.915 39.4429ZM838.579 43.1562C838.525 43.6299 838.279 44.1108 837.839 44.5991C837.156 45.3755 836.199 45.7637 834.968 45.7637C833.953 45.7637 833.057 45.4365 832.28 44.7822C831.504 44.1279 831.116 43.0635 831.116 41.5889C831.116 40.207 831.465 39.1475 832.163 38.4102C832.866 37.6729 833.777 37.3042 834.895 37.3042C835.559 37.3042 836.157 37.4287 836.689 37.6777C837.222 37.9268 837.661 38.3198 838.008 38.8569C838.32 39.3306 838.523 39.8799 838.616 40.5049C838.669 40.8711 838.691 41.3984 838.682 42.0869H833.218C833.247 42.8877 833.499 43.4492 833.972 43.7715C834.26 43.9717 834.607 44.0718 835.012 44.0718C835.442 44.0718 835.791 43.9497 836.06 43.7056C836.206 43.5737 836.335 43.3906 836.448 43.1562H838.579ZM836.514 40.71C836.479 40.1582 836.311 39.7407 836.008 39.4575C835.71 39.1694 835.339 39.0254 834.895 39.0254C834.412 39.0254 834.036 39.1768 833.767 39.4795C833.503 39.7822 833.337 40.1924 833.269 40.71H836.514ZM844.578 39.7139C844.402 39.3281 844.058 39.1353 843.545 39.1353C842.949 39.1353 842.549 39.3281 842.344 39.7139C842.231 39.9336 842.175 40.2607 842.175 40.6953V45.5H840.059V37.5312H842.087V38.6958C842.346 38.2808 842.59 37.9854 842.82 37.8096C843.225 37.4971 843.75 37.3408 844.395 37.3408C845.005 37.3408 845.498 37.4751 845.874 37.7437C846.177 37.9927 846.406 38.3125 846.562 38.7031C846.836 38.2344 847.175 37.8901 847.581 37.6704C848.01 37.4507 848.489 37.3408 849.016 37.3408C849.368 37.3408 849.714 37.4092 850.056 37.5459C850.398 37.6826 850.708 37.9219 850.986 38.2637C851.211 38.542 851.362 38.8838 851.44 39.2891C851.489 39.5576 851.514 39.9507 851.514 40.4683L851.499 45.5H849.36V40.417C849.36 40.1143 849.312 39.8652 849.214 39.6699C849.028 39.2988 848.687 39.1133 848.188 39.1133C847.612 39.1133 847.214 39.3525 846.995 39.8311C846.882 40.085 846.826 40.3901 846.826 40.7466V45.5H844.724V40.7466C844.724 40.2729 844.675 39.9287 844.578 39.7139ZM855.586 37.5166V45.5H853.469V37.5166H855.586ZM855.586 34.6382V36.5645H853.469V34.6382H855.586ZM862.734 44.3721C862.715 44.3965 862.666 44.4697 862.588 44.5918C862.51 44.7139 862.417 44.8213 862.31 44.9141C861.982 45.207 861.665 45.4072 861.357 45.5146C861.055 45.6221 860.698 45.6758 860.288 45.6758C859.106 45.6758 858.311 45.251 857.9 44.4014C857.671 43.9326 857.556 43.2417 857.556 42.3286V37.5166H859.695V42.3286C859.695 42.7827 859.749 43.1245 859.856 43.354C860.046 43.7593 860.42 43.9619 860.977 43.9619C861.689 43.9619 862.178 43.6738 862.441 43.0977C862.578 42.7852 862.646 42.3726 862.646 41.8599V37.5166H864.763V45.5H862.734V44.3721ZM871.267 39.7139C871.091 39.3281 870.747 39.1353 870.234 39.1353C869.639 39.1353 869.238 39.3281 869.033 39.7139C868.921 39.9336 868.865 40.2607 868.865 40.6953V45.5H866.748V37.5312H868.777V38.6958C869.036 38.2808 869.28 37.9854 869.509 37.8096C869.915 37.4971 870.439 37.3408 871.084 37.3408C871.694 37.3408 872.188 37.4751 872.563 37.7437C872.866 37.9927 873.096 38.3125 873.252 38.7031C873.525 38.2344 873.865 37.8901 874.27 37.6704C874.7 37.4507 875.178 37.3408 875.706 37.3408C876.057 37.3408 876.404 37.4092 876.746 37.5459C877.087 37.6826 877.397 37.9219 877.676 38.2637C877.9 38.542 878.052 38.8838 878.13 39.2891C878.179 39.5576 878.203 39.9507 878.203 40.4683L878.188 45.5H876.05V40.417C876.05 40.1143 876.001 39.8652 875.903 39.6699C875.718 39.2988 875.376 39.1133 874.878 39.1133C874.302 39.1133 873.904 39.3525 873.684 39.8311C873.572 40.085 873.516 40.3901 873.516 40.7466V45.5H871.414V40.7466C871.414 40.2729 871.365 39.9287 871.267 39.7139Z" fill="white"/>
<path d="M920.499 43.9399C921.031 43.9399 921.463 43.8813 921.795 43.7642C922.425 43.5396 922.74 43.1221 922.74 42.5117C922.74 42.1553 922.583 41.8794 922.271 41.6841C921.958 41.4937 921.468 41.3252 920.799 41.1787L919.656 40.9224C918.533 40.6685 917.757 40.3926 917.327 40.0947C916.6 39.5967 916.236 38.8179 916.236 37.7583C916.236 36.7915 916.587 35.9883 917.291 35.3486C917.994 34.709 919.026 34.3892 920.389 34.3892C921.526 34.3892 922.496 34.6919 923.296 35.2974C924.102 35.8979 924.524 36.772 924.563 37.9194H922.396C922.356 37.27 922.073 36.8086 921.546 36.5352C921.194 36.3545 920.757 36.2642 920.235 36.2642C919.654 36.2642 919.19 36.3813 918.843 36.6157C918.497 36.8501 918.323 37.1772 918.323 37.5972C918.323 37.9829 918.494 38.271 918.836 38.4614C919.056 38.5884 919.524 38.7373 920.242 38.9082L922.103 39.355C922.918 39.5503 923.533 39.8115 923.948 40.1387C924.593 40.6465 924.915 41.3813 924.915 42.3433C924.915 43.3296 924.537 44.1499 923.78 44.8042C923.028 45.4536 921.963 45.7783 920.586 45.7783C919.18 45.7783 918.074 45.4585 917.269 44.8188C916.463 44.1743 916.06 43.2905 916.06 42.1675H918.213C918.282 42.6606 918.416 43.0293 918.616 43.2734C918.982 43.7178 919.61 43.9399 920.499 43.9399ZM931.536 44.3721C931.517 44.3965 931.468 44.4697 931.39 44.5918C931.312 44.7139 931.219 44.8213 931.111 44.9141C930.784 45.207 930.467 45.4072 930.159 45.5146C929.856 45.6221 929.5 45.6758 929.09 45.6758C927.908 45.6758 927.112 45.251 926.702 44.4014C926.473 43.9326 926.358 43.2417 926.358 42.3286V37.5166H928.497V42.3286C928.497 42.7827 928.55 43.1245 928.658 43.354C928.848 43.7593 929.222 43.9619 929.778 43.9619C930.491 43.9619 930.979 43.6738 931.243 43.0977C931.38 42.7852 931.448 42.3726 931.448 41.8599V37.5166H933.565V45.5H931.536V44.3721ZM942.273 38.3735C942.918 39.062 943.24 40.0728 943.24 41.4058C943.24 42.812 942.923 43.8838 942.288 44.6211C941.658 45.3584 940.845 45.7271 939.849 45.7271C939.214 45.7271 938.687 45.5684 938.267 45.251C938.038 45.0752 937.813 44.8188 937.593 44.4819V48.6421H935.528V37.5166H937.527V38.6958C937.752 38.3491 937.991 38.0757 938.245 37.8755C938.709 37.519 939.261 37.3408 939.9 37.3408C940.833 37.3408 941.624 37.6851 942.273 38.3735ZM941.087 41.5083C941.087 40.8931 940.945 40.3486 940.662 39.875C940.384 39.4014 939.93 39.1646 939.3 39.1646C938.543 39.1646 938.023 39.5234 937.74 40.2412C937.593 40.6221 937.52 41.1055 937.52 41.6914C937.52 42.6191 937.767 43.271 938.26 43.647C938.553 43.8667 938.899 43.9766 939.3 43.9766C939.881 43.9766 940.323 43.752 940.625 43.3027C940.933 42.8535 941.087 42.2554 941.087 41.5083ZM951.443 38.3735C952.088 39.062 952.41 40.0728 952.41 41.4058C952.41 42.812 952.093 43.8838 951.458 44.6211C950.828 45.3584 950.015 45.7271 949.019 45.7271C948.384 45.7271 947.857 45.5684 947.437 45.251C947.208 45.0752 946.983 44.8188 946.763 44.4819V48.6421H944.698V37.5166H946.697V38.6958C946.922 38.3491 947.161 38.0757 947.415 37.8755C947.879 37.519 948.431 37.3408 949.07 37.3408C950.003 37.3408 950.794 37.6851 951.443 38.3735ZM950.257 41.5083C950.257 40.8931 950.115 40.3486 949.832 39.875C949.554 39.4014 949.1 39.1646 948.47 39.1646C947.713 39.1646 947.193 39.5234 946.91 40.2412C946.763 40.6221 946.69 41.1055 946.69 41.6914C946.69 42.6191 946.937 43.271 947.43 43.647C947.723 43.8667 948.069 43.9766 948.47 43.9766C949.051 43.9766 949.493 43.752 949.795 43.3027C950.103 42.8535 950.257 42.2554 950.257 41.5083ZM960.584 38.5273C961.258 39.3721 961.595 40.3706 961.595 41.5229C961.595 42.6948 961.258 43.6982 960.584 44.5332C959.91 45.3633 958.887 45.7783 957.515 45.7783C956.143 45.7783 955.12 45.3633 954.446 44.5332C953.772 43.6982 953.436 42.6948 953.436 41.5229C953.436 40.3706 953.772 39.3721 954.446 38.5273C955.12 37.6826 956.143 37.2603 957.515 37.2603C958.887 37.2603 959.91 37.6826 960.584 38.5273ZM957.508 39.0254C956.897 39.0254 956.426 39.2427 956.094 39.6772C955.767 40.1069 955.604 40.7222 955.604 41.5229C955.604 42.3237 955.767 42.9414 956.094 43.376C956.426 43.8105 956.897 44.0278 957.508 44.0278C958.118 44.0278 958.587 43.8105 958.914 43.376C959.241 42.9414 959.405 42.3237 959.405 41.5229C959.405 40.7222 959.241 40.1069 958.914 39.6772C958.587 39.2427 958.118 39.0254 957.508 39.0254ZM967.11 39.4429C966.27 39.4429 965.706 39.7163 965.418 40.2632C965.257 40.5708 965.176 41.0444 965.176 41.6841V45.5H963.074V37.5166H965.066V38.9082C965.389 38.376 965.669 38.0122 965.909 37.8169C966.299 37.4897 966.807 37.3262 967.432 37.3262C967.471 37.3262 967.503 37.3286 967.527 37.3335C967.557 37.3335 967.618 37.3359 967.71 37.3408V39.4795C967.579 39.4648 967.461 39.4551 967.359 39.4502C967.256 39.4453 967.173 39.4429 967.11 39.4429ZM972.596 44.0132V45.5732L971.607 45.6099C970.621 45.644 969.947 45.4731 969.585 45.0972C969.351 44.8579 969.234 44.4893 969.234 43.9912V39.0767H968.121V37.5898H969.234V35.3633H971.299V37.5898H972.596V39.0767H971.299V43.2954C971.299 43.6226 971.341 43.8276 971.424 43.9106C971.507 43.9888 971.761 44.0278 972.186 44.0278C972.249 44.0278 972.315 44.0278 972.383 44.0278C972.457 44.0229 972.527 44.0181 972.596 44.0132Z" fill="white"/>
<path d="M1015.59 45.5H1010.94V34.7041H1015.59C1016.26 34.7139 1016.82 34.792 1017.26 34.9385C1018.02 35.1875 1018.63 35.644 1019.1 36.3081C1019.47 36.8452 1019.73 37.4263 1019.87 38.0513C1020 38.6763 1020.07 39.272 1020.07 39.8384C1020.07 41.2739 1019.78 42.4897 1019.21 43.4858C1018.43 44.8286 1017.22 45.5 1015.59 45.5ZM1017.27 37.458C1016.92 36.8721 1016.23 36.5791 1015.21 36.5791H1013.13V43.625H1015.21C1016.27 43.625 1017.02 43.1001 1017.44 42.0503C1017.67 41.4741 1017.78 40.7881 1017.78 39.9922C1017.78 38.8936 1017.61 38.0488 1017.27 37.458ZM1028.27 38.5273C1028.94 39.3721 1029.28 40.3706 1029.28 41.5229C1029.28 42.6948 1028.94 43.6982 1028.27 44.5332C1027.59 45.3633 1026.57 45.7783 1025.2 45.7783C1023.83 45.7783 1022.8 45.3633 1022.13 44.5332C1021.46 43.6982 1021.12 42.6948 1021.12 41.5229C1021.12 40.3706 1021.46 39.3721 1022.13 38.5273C1022.8 37.6826 1023.83 37.2603 1025.2 37.2603C1026.57 37.2603 1027.59 37.6826 1028.27 38.5273ZM1025.19 39.0254C1024.58 39.0254 1024.11 39.2427 1023.78 39.6772C1023.45 40.1069 1023.29 40.7222 1023.29 41.5229C1023.29 42.3237 1023.45 42.9414 1023.78 43.376C1024.11 43.8105 1024.58 44.0278 1025.19 44.0278C1025.8 44.0278 1026.27 43.8105 1026.6 43.376C1026.93 42.9414 1027.09 42.3237 1027.09 41.5229C1027.09 40.7222 1026.93 40.1069 1026.6 39.6772C1026.27 39.2427 1025.8 39.0254 1025.19 39.0254ZM1036.84 45.5L1035.59 39.6846L1034.32 45.5H1032.15L1029.91 37.5166H1032.15L1033.4 43.2441L1034.55 37.5166H1036.66L1037.88 43.2661L1039.12 37.5166H1041.3L1038.98 45.5H1036.84ZM1046.21 39.062C1045.5 39.062 1045.02 39.3623 1044.76 39.9629C1044.62 40.2803 1044.55 40.6855 1044.55 41.1787V45.5H1042.47V37.5312H1044.48V38.6958C1044.75 38.2856 1045.01 37.9902 1045.25 37.8096C1045.68 37.4873 1046.22 37.3262 1046.88 37.3262C1047.7 37.3262 1048.38 37.5435 1048.9 37.978C1049.43 38.4077 1049.69 39.123 1049.69 40.124V45.5H1047.55V40.644C1047.55 40.2241 1047.5 39.9019 1047.38 39.6772C1047.18 39.2671 1046.79 39.062 1046.21 39.062ZM1051.67 34.7041H1053.76V45.5H1051.67V34.7041ZM1062.46 38.5273C1063.13 39.3721 1063.47 40.3706 1063.47 41.5229C1063.47 42.6948 1063.13 43.6982 1062.46 44.5332C1061.78 45.3633 1060.76 45.7783 1059.39 45.7783C1058.02 45.7783 1056.99 45.3633 1056.32 44.5332C1055.65 43.6982 1055.31 42.6948 1055.31 41.5229C1055.31 40.3706 1055.65 39.3721 1056.32 38.5273C1056.99 37.6826 1058.02 37.2603 1059.39 37.2603C1060.76 37.2603 1061.78 37.6826 1062.46 38.5273ZM1059.38 39.0254C1058.77 39.0254 1058.3 39.2427 1057.97 39.6772C1057.64 40.1069 1057.48 40.7222 1057.48 41.5229C1057.48 42.3237 1057.64 42.9414 1057.97 43.376C1058.3 43.8105 1058.77 44.0278 1059.38 44.0278C1059.99 44.0278 1060.46 43.8105 1060.79 43.376C1061.12 42.9414 1061.28 42.3237 1061.28 41.5229C1061.28 40.7222 1061.12 40.1069 1060.79 39.6772C1060.46 39.2427 1059.99 39.0254 1059.38 39.0254ZM1065.27 38.3809C1065.82 37.6777 1066.77 37.3262 1068.11 37.3262C1068.99 37.3262 1069.76 37.4995 1070.44 37.8462C1071.12 38.1929 1071.46 38.8472 1071.46 39.8091V43.4712C1071.46 43.7251 1071.46 44.0327 1071.47 44.394C1071.49 44.6675 1071.53 44.853 1071.6 44.9507C1071.67 45.0483 1071.77 45.1289 1071.91 45.1924V45.5H1069.64C1069.57 45.3389 1069.53 45.1875 1069.5 45.0459C1069.48 44.9043 1069.46 44.7432 1069.45 44.5625C1069.16 44.875 1068.83 45.1411 1068.45 45.3608C1068 45.6196 1067.49 45.749 1066.93 45.749C1066.2 45.749 1065.6 45.5439 1065.13 45.1338C1064.66 44.7188 1064.43 44.1328 1064.43 43.376C1064.43 42.3945 1064.81 41.6841 1065.56 41.2446C1065.98 41.0054 1066.59 40.8345 1067.39 40.7319L1068.1 40.644C1068.49 40.5952 1068.77 40.5342 1068.93 40.4609C1069.23 40.334 1069.38 40.1362 1069.38 39.8677C1069.38 39.5405 1069.26 39.3159 1069.04 39.1938C1068.81 39.0669 1068.48 39.0034 1068.04 39.0034C1067.55 39.0034 1067.2 39.1255 1066.99 39.3696C1066.85 39.5503 1066.75 39.7944 1066.7 40.1021H1064.68C1064.73 39.4038 1064.92 38.8301 1065.27 38.3809ZM1066.82 43.9912C1067.02 44.1523 1067.26 44.2329 1067.54 44.2329C1067.99 44.2329 1068.4 44.1011 1068.78 43.8374C1069.16 43.5737 1069.36 43.0928 1069.37 42.3945V41.6182C1069.24 41.7012 1069.11 41.7695 1068.97 41.8232C1068.84 41.8721 1068.65 41.9185 1068.42 41.9624L1067.95 42.0503C1067.51 42.1284 1067.2 42.2236 1067.01 42.3359C1066.68 42.5264 1066.52 42.8218 1066.52 43.2222C1066.52 43.5786 1066.62 43.835 1066.82 43.9912ZM1080.59 34.7188V45.5H1078.56V44.394C1078.26 44.8677 1077.92 45.2119 1077.54 45.4268C1077.16 45.6416 1076.68 45.749 1076.12 45.749C1075.19 45.749 1074.4 45.373 1073.76 44.6211C1073.12 43.8643 1072.81 42.895 1072.81 41.7134C1072.81 40.3511 1073.12 39.2793 1073.74 38.498C1074.37 37.7168 1075.21 37.3262 1076.26 37.3262C1076.75 37.3262 1077.18 37.4336 1077.55 37.6484C1077.93 37.8584 1078.23 38.1514 1078.47 38.5273V34.7188H1080.59ZM1074.96 41.5596C1074.96 42.2969 1075.11 42.8853 1075.4 43.3247C1075.69 43.769 1076.13 43.9912 1076.72 43.9912C1077.31 43.9912 1077.76 43.7715 1078.07 43.332C1078.37 42.8926 1078.53 42.3237 1078.53 41.6255C1078.53 40.6489 1078.28 39.9507 1077.79 39.5308C1077.48 39.2769 1077.13 39.1499 1076.73 39.1499C1076.12 39.1499 1075.67 39.3818 1075.39 39.8457C1075.1 40.3047 1074.96 40.876 1074.96 41.5596Z" fill="white"/>
<rect x="1119.72" y="32.5" width="1" height="16" fill="white"/>
<path d="M1159.78 43.9399C1160.31 43.9399 1160.74 43.8813 1161.08 43.7642C1161.71 43.5396 1162.02 43.1221 1162.02 42.5117C1162.02 42.1553 1161.86 41.8794 1161.55 41.6841C1161.24 41.4937 1160.75 41.3252 1160.08 41.1787L1158.94 40.9224C1157.81 40.6685 1157.04 40.3926 1156.61 40.0947C1155.88 39.5967 1155.52 38.8179 1155.52 37.7583C1155.52 36.7915 1155.87 35.9883 1156.57 35.3486C1157.27 34.709 1158.31 34.3892 1159.67 34.3892C1160.81 34.3892 1161.78 34.6919 1162.58 35.2974C1163.38 35.8979 1163.81 36.772 1163.84 37.9194H1161.68C1161.64 37.27 1161.35 36.8086 1160.83 36.5352C1160.48 36.3545 1160.04 36.2642 1159.52 36.2642C1158.94 36.2642 1158.47 36.3813 1158.12 36.6157C1157.78 36.8501 1157.6 37.1772 1157.6 37.5972C1157.6 37.9829 1157.78 38.271 1158.12 38.4614C1158.34 38.5884 1158.81 38.7373 1159.52 38.9082L1161.38 39.355C1162.2 39.5503 1162.81 39.8115 1163.23 40.1387C1163.87 40.6465 1164.2 41.3813 1164.2 42.3433C1164.2 43.3296 1163.82 44.1499 1163.06 44.8042C1162.31 45.4536 1161.24 45.7783 1159.87 45.7783C1158.46 45.7783 1157.36 45.4585 1156.55 44.8188C1155.74 44.1743 1155.34 43.2905 1155.34 42.1675H1157.49C1157.56 42.6606 1157.7 43.0293 1157.9 43.2734C1158.26 43.7178 1158.89 43.9399 1159.78 43.9399ZM1167.84 37.5166V45.5H1165.73V37.5166H1167.84ZM1167.84 34.6382V36.5645H1165.73V34.6382H1167.84ZM1172.13 46.8989C1172.35 47.0894 1172.73 47.1846 1173.26 47.1846C1174.02 47.1846 1174.52 46.9331 1174.77 46.4302C1174.94 46.1079 1175.02 45.5659 1175.02 44.8042V44.2915C1174.82 44.6333 1174.61 44.8896 1174.38 45.0605C1173.96 45.3779 1173.42 45.5366 1172.76 45.5366C1171.73 45.5366 1170.91 45.1777 1170.3 44.46C1169.69 43.7373 1169.38 42.7607 1169.38 41.5303C1169.38 40.3438 1169.68 39.3477 1170.27 38.542C1170.86 37.7314 1171.7 37.3262 1172.78 37.3262C1173.18 37.3262 1173.53 37.3872 1173.83 37.5093C1174.34 37.7192 1174.75 38.105 1175.06 38.6665V37.5166H1177.09V45.0898C1177.09 46.1201 1176.91 46.8965 1176.57 47.4189C1175.97 48.3174 1174.83 48.7666 1173.14 48.7666C1172.12 48.7666 1171.29 48.5664 1170.64 48.166C1170 47.7656 1169.64 47.1675 1169.57 46.3716H1171.84C1171.9 46.6157 1172 46.7915 1172.13 46.8989ZM1171.78 42.7754C1172.06 43.4492 1172.57 43.7861 1173.3 43.7861C1173.79 43.7861 1174.2 43.603 1174.54 43.2368C1174.88 42.8657 1175.04 42.2773 1175.04 41.4717C1175.04 40.7148 1174.88 40.1387 1174.56 39.7432C1174.24 39.3477 1173.82 39.1499 1173.28 39.1499C1172.55 39.1499 1172.04 39.4941 1171.76 40.1826C1171.62 40.5488 1171.54 41.0005 1171.54 41.5376C1171.54 42.0015 1171.62 42.4141 1171.78 42.7754ZM1182.8 39.062C1182.09 39.062 1181.61 39.3623 1181.34 39.9629C1181.21 40.2803 1181.14 40.6855 1181.14 41.1787V45.5H1179.06V37.5312H1181.07V38.6958C1181.34 38.2856 1181.59 37.9902 1181.83 37.8096C1182.26 37.4873 1182.81 37.3262 1183.47 37.3262C1184.29 37.3262 1184.97 37.5435 1185.49 37.978C1186.02 38.4077 1186.28 39.123 1186.28 40.124V45.5H1184.14V40.644C1184.14 40.2241 1184.08 39.9019 1183.97 39.6772C1183.77 39.2671 1183.38 39.062 1182.8 39.062ZM1197.51 44.3721C1197.49 44.3965 1197.44 44.4697 1197.36 44.5918C1197.28 44.7139 1197.19 44.8213 1197.08 44.9141C1196.75 45.207 1196.44 45.4072 1196.13 45.5146C1195.83 45.6221 1195.47 45.6758 1195.06 45.6758C1193.88 45.6758 1193.08 45.251 1192.67 44.4014C1192.44 43.9326 1192.33 43.2417 1192.33 42.3286V37.5166H1194.47V42.3286C1194.47 42.7827 1194.52 43.1245 1194.63 43.354C1194.82 43.7593 1195.19 43.9619 1195.75 43.9619C1196.46 43.9619 1196.95 43.6738 1197.21 43.0977C1197.35 42.7852 1197.42 42.3726 1197.42 41.8599V37.5166H1199.54V45.5H1197.51V44.3721ZM1208.24 38.3735C1208.89 39.062 1209.21 40.0728 1209.21 41.4058C1209.21 42.812 1208.89 43.8838 1208.26 44.6211C1207.63 45.3584 1206.82 45.7271 1205.82 45.7271C1205.19 45.7271 1204.66 45.5684 1204.24 45.251C1204.01 45.0752 1203.78 44.8188 1203.56 44.4819V48.6421H1201.5V37.5166H1203.5V38.6958C1203.72 38.3491 1203.96 38.0757 1204.22 37.8755C1204.68 37.519 1205.23 37.3408 1205.87 37.3408C1206.8 37.3408 1207.59 37.6851 1208.24 38.3735ZM1207.06 41.5083C1207.06 40.8931 1206.92 40.3486 1206.63 39.875C1206.35 39.4014 1205.9 39.1646 1205.27 39.1646C1204.51 39.1646 1203.99 39.5234 1203.71 40.2412C1203.56 40.6221 1203.49 41.1055 1203.49 41.6914C1203.49 42.6191 1203.74 43.271 1204.23 43.647C1204.52 43.8667 1204.87 43.9766 1205.27 43.9766C1205.85 43.9766 1206.29 43.752 1206.6 43.3027C1206.9 42.8535 1207.06 42.2554 1207.06 41.5083Z" fill="#D9DADC"/>
<path d="M1245.77 34.7041H1248.02V43.5591H1253.37V45.5H1245.77V34.7041ZM1261.43 38.5273C1262.1 39.3721 1262.44 40.3706 1262.44 41.5229C1262.44 42.6948 1262.1 43.6982 1261.43 44.5332C1260.75 45.3633 1259.73 45.7783 1258.36 45.7783C1256.99 45.7783 1255.96 45.3633 1255.29 44.5332C1254.62 43.6982 1254.28 42.6948 1254.28 41.5229C1254.28 40.3706 1254.62 39.3721 1255.29 38.5273C1255.96 37.6826 1256.99 37.2603 1258.36 37.2603C1259.73 37.2603 1260.75 37.6826 1261.43 38.5273ZM1258.35 39.0254C1257.74 39.0254 1257.27 39.2427 1256.94 39.6772C1256.61 40.1069 1256.45 40.7222 1256.45 41.5229C1256.45 42.3237 1256.61 42.9414 1256.94 43.376C1257.27 43.8105 1257.74 44.0278 1258.35 44.0278C1258.96 44.0278 1259.43 43.8105 1259.76 43.376C1260.08 42.9414 1260.25 42.3237 1260.25 41.5229C1260.25 40.7222 1260.08 40.1069 1259.76 39.6772C1259.43 39.2427 1258.96 39.0254 1258.35 39.0254ZM1266.19 46.8989C1266.42 47.0894 1266.8 47.1846 1267.33 47.1846C1268.08 47.1846 1268.58 46.9331 1268.84 46.4302C1269 46.1079 1269.09 45.5659 1269.09 44.8042V44.2915C1268.89 44.6333 1268.67 44.8896 1268.44 45.0605C1268.03 45.3779 1267.49 45.5366 1266.82 45.5366C1265.8 45.5366 1264.98 45.1777 1264.36 44.46C1263.75 43.7373 1263.45 42.7607 1263.45 41.5303C1263.45 40.3438 1263.74 39.3477 1264.33 38.542C1264.93 37.7314 1265.76 37.3262 1266.85 37.3262C1267.25 37.3262 1267.6 37.3872 1267.89 37.5093C1268.4 37.7192 1268.81 38.105 1269.12 38.6665V37.5166H1271.15V45.0898C1271.15 46.1201 1270.98 46.8965 1270.63 47.4189C1270.04 48.3174 1268.9 48.7666 1267.21 48.7666C1266.19 48.7666 1265.35 48.5664 1264.71 48.166C1264.06 47.7656 1263.71 47.1675 1263.64 46.3716H1265.91C1265.97 46.6157 1266.06 46.7915 1266.19 46.8989ZM1265.84 42.7754C1266.13 43.4492 1266.63 43.7861 1267.37 43.7861C1267.85 43.7861 1268.27 43.603 1268.6 43.2368C1268.94 42.8657 1269.11 42.2773 1269.11 41.4717C1269.11 40.7148 1268.95 40.1387 1268.63 39.7432C1268.31 39.3477 1267.88 39.1499 1267.34 39.1499C1266.61 39.1499 1266.11 39.4941 1265.83 40.1826C1265.68 40.5488 1265.61 41.0005 1265.61 41.5376C1265.61 42.0015 1265.69 42.4141 1265.84 42.7754ZM1279.43 37.5166V45.5H1277.31V37.5166H1279.43ZM1279.43 34.6382V36.5645H1277.31V34.6382H1279.43ZM1285.22 39.062C1284.51 39.062 1284.02 39.3623 1283.76 39.9629C1283.62 40.2803 1283.55 40.6855 1283.55 41.1787V45.5H1281.47V37.5312H1283.49V38.6958C1283.76 38.2856 1284.01 37.9902 1284.25 37.8096C1284.68 37.4873 1285.22 37.3262 1285.88 37.3262C1286.71 37.3262 1287.38 37.5435 1287.9 37.978C1288.43 38.4077 1288.69 39.123 1288.69 40.124V45.5H1286.56V40.644C1286.56 40.2241 1286.5 39.9019 1286.39 39.6772C1286.18 39.2671 1285.79 39.062 1285.22 39.062Z" fill="#D9DADC"/>
<defs>
<clipPath id="clip0_0_525">
<rect width="132" height="41.875" fill="white" transform="translate(150 20.5)"/>
</clipPath>
</defs>
</svg>
